<svg width="1144" height="623.24" xmlns="http://www.w3.org/2000/svg" data-name="Layer 1">

 <title>wedding</title>
 <g>
  <title>Layer 1</title>
  <path id="svg_1" opacity="0.1" fill="#6c63ff" d="m693.5171,446.14102c22.1,-1.26 49.52,-16.26 70.84,-22.88q37.85,-11.76 76,-22.6q132.77,-37.77 268.44,-64.4q12.66,-2.48 25.36,-4.86a179.65,179.65 0 0 0 -59.26,-71.17a181.86,181.86 0 0 0 1,-18.77c0,-99.14 -79.23,-179.51 -177,-179.51a174.27,174.27 0 0 0 -85.9,22.54c-69.2,-45.52 -159.52,-73.07 -258.34,-73.07c-140.42,0 -263.69,55.64 -333.54,139.4l328.34,55.46l201.34,34c-229.53,6.85 -459.77,13.66 -688.64,-2.42a181.42,181.42 0 0 0 -26.12,229l0,0c0,3.59 0.15,7.14 0.42,10.67c5.83,1.68 11.46,3.29 16.51,4.36q121.61,25.68 244.78,43c-60.51,37.31 -134.2,42.58 -204,58.38c33.8,27.9 79.7,45.06 130.28,45.06l753.09,0c81.55,0 147.65,-56.78 147.65,-126.82l0,0a180.14,180.14 0 0 0 24,-65.88c-150.9,14.53 -303.68,1.88 -455.25,10.51z"/>
  <path id="svg_2" opacity="0.1" fill="#6c63ff" d="m1149.7971,405.76102a180,180 0 0 0 -76,-147.42a184.86,184.86 0 0 0 1,-18.77c0,-99.15 -79.24,-179.51 -177,-179.51a174.18,174.18 0 0 0 -85.92,22.53c-69.19,-45.52 -159.52,-73.07 -258.34,-73.07c-160.79,0 -299.1,72.94 -360.46,177.55c-3.41,-0.2 -6.84,-0.31 -10.3,-0.31c-97.74,0 -177,80.36 -177,179.5a180.5,180.5 0 0 0 29.12,98.67l0,0c0,89.2 84.19,161.51 188,161.51l753.14,0c81.54,0 147.64,-56.77 147.64,-126.81l0,0a180.57,180.57 0 0 0 26.12,-93.87z"/>
  <path id="svg_113" opacity="0.1" fill="#6c63ff" d="m234.4871,202.11102l-2,-1.82c-7.18,-6.6 -11.93,-10.88 -11.93,-16.22a7.59,7.59 0 0 1 7.68,-7.72a8.25,8.25 0 0 1 6.28,2.95a8.22,8.22 0 0 1 6.28,-2.95a7.59,7.59 0 0 1 7.67,7.72c0,5.34 -4.74,9.62 -11.93,16.22l-2.05,1.82z"/>
  <path id="svg_115" opacity="0.1" fill="#6c63ff" d="m416.0171,143.04102l-2,-1.83c-7.19,-6.59 -11.93,-10.88 -11.93,-16.21a7.59,7.59 0 0 1 7.67,-7.72a8.24,8.24 0 0 1 6.28,2.95a8.25,8.25 0 0 1 6.28,-2.95a7.59,7.59 0 0 1 7.68,7.72c0,5.33 -4.75,9.62 -11.93,16.21l-2.05,1.83z"/>
  <path id="svg_116" opacity="0.5" fill="#6c63ff" d="m829.7271,129.42102c-4,-5.44 -12.27,0.46 -8.53,6.09c1,1.47 2.05,2.9 3.06,4.26c12.32,16.63 18.7,36.82 24.2,56.77c1.34,4.9 2.65,10.13 1.11,15c2.2,-13 0.77,-26.35 -2.55,-39.08s-8.49,-24.89 -13.83,-36.9a33.11,33.11 0 0 0 -3.46,-6.14z"/>
  <path id="svg_117" fill="#6c63ff" d="m749.7971,164.39102c-8.31,-0.25 -9.36,12.35 -1.09,13c2.17,0.17 4.36,0.22 6.44,0.28c25.44,0.69 49.5,9.92 72.61,19.84c5.68,2.43 11.63,5.16 15,10.37c-10.42,-12.08 -24.14,-20.93 -38.74,-27.44s-30.14,-10.77 -45.68,-14.76a39.56,39.56 0 0 0 -8.54,-1.29z"/>
  <path id="svg_118" opacity="0.2" fill="#6c63ff" d="m752.1171,195.36102c-5.24,0.2 -4.06,7.65 1.22,7.7c1.38,0 2.76,-0.05 4.08,-0.11c16,-0.65 32.48,3.78 48.42,8.65c3.91,1.19 8.05,2.55 10.89,5.48c-8.3,-6.67 -18.2,-11.31 -28.3,-14.53s-20.47,-5.08 -30.8,-6.77a28.25,28.25 0 0 0 -5.51,-0.42z"/>
  <path id="svg_119" opacity="0.5" fill="#6c63ff" d="m859.4871,333.97102c1.49,5 8.41,2 7.15,-3.09c-0.33,-1.34 -0.74,-2.66 -1.12,-3.92c-4.61,-15.39 -4.39,-32.4 -3.63,-49.05c0.18,-4.09 0.47,-8.43 2.6,-11.91c-4.4,9.7 -6.44,20.43 -7.05,31s0.16,21.09 1.08,31.51a28,28 0 0 0 0.97,5.46z"/>
  <path id="svg_120" opacity="0.2" fill="#6c63ff" d="m761.6771,122.43102c-3.16,-0.55 -3.4,4.05 -0.25,4.75c0.83,0.18 1.66,0.32 2.45,0.46c9.67,1.65 18.92,6.38 27.82,11.31c2.19,1.21 4.48,2.55 5.81,4.66a53.15,53.15 0 0 0 -15.06,-12.27a130.67,130.67 0 0 0 -17.53,-8a16.51,16.51 0 0 0 -3.24,-0.91z"/>
  <path id="svg_121" fill="#6c63ff" d="m712.9171,244.35102c-8,4.13 -1.24,15.45 7,11.69c2.15,-1 4.26,-2.08 6.26,-3.13c24.49,-12.7 52.94,-17.37 80.91,-21c6.87,-0.88 14.19,-1.65 20.54,1.07c-17.31,-4.89 -35.74,-5.29 -53.56,-3.22s-35.15,6.54 -52.31,11.25a46.88,46.88 0 0 0 -8.84,3.34z"/>
  <path id="svg_122" opacity="0.5" fill="#6c63ff" d="m735.7971,288.42102c-5.76,5.37 3.23,11.72 9.27,6.56c1.58,-1.35 3.09,-2.78 4.53,-4.13c17.55,-16.47 40.74,-28.2 63.83,-39c5.67,-2.65 29,-5.36 35.22,-5.21c-16.26,1.45 -49.49,6.53 -64.26,13.25s-28.45,15.05 -41.92,23.52a44.88,44.88 0 0 0 -6.67,5.01z"/>
  <path id="svg_123" fill="#6c63ff" d="m776.8871,358.77102c-1.68,7.68 9.32,7.79 11.36,0.11c0.53,-2 1,-4 1.37,-6c5.08,-23.49 17.49,-46.29 30.35,-68.29c3.15,-5.4 20.81,-20.89 26,-24.31c-12.56,10.45 -37,33.52 -45.34,47.44s-14.83,28.5 -21.1,43.12a45.83,45.83 0 0 0 -2.64,7.93z"/>
  <path id="svg_124" fill="#6c63ff" d="m859.5771,88.71102c-3.92,-8 -15.13,-1.42 -11.57,6.78c0.93,2.15 2,4.25 3,6.25c12.08,24.43 16.23,52.69 19.33,80.46c0.77,6.82 1.41,14.08 -1.35,20.35c5.06,-17.1 5.73,-35.37 4,-53s-5.88,-34.93 -10.24,-52a46.72,46.72 0 0 0 -3.17,-8.84z"/>
  <path id="svg_125" fill="#6c63ff" d="m797.0971,102.32102a1.49,1.49 0 0 0 0.68,0.2c0.43,0 0.74,-0.44 0.92,-0.84c1,-2.12 0.42,-4.88 1.92,-6.68a23,23 0 0 1 3.66,6.14l5.76,-1.78a8.54,8.54 0 0 1 -1.09,6.59a8.9,8.9 0 0 1 2.71,1.84a3,3 0 0 1 0.71,3.05a14.66,14.66 0 0 1 -4.07,0.4a26.62,26.62 0 0 1 -0.43,7.56a1.41,1.41 0 0 1 -0.49,1a1.38,1.38 0 0 1 -1.41,-0.24a13.34,13.34 0 0 1 -4.73,-5l-2.14,5.03a2.21,2.21 0 0 1 -1,1.28a1.52,1.52 0 0 1 -1.79,-0.61a4.69,4.69 0 0 1 -0.64,-1.94l-0.8,-4.87a1.19,1.19 0 0 0 -0.26,-0.69a1.25,1.25 0 0 0 -0.81,-0.17q-3,-0.09 -6.09,-0.06c-0.35,-1.08 0.73,-2.09 1.76,-2.54s2.28,-0.8 2.8,-1.81c1.06,-2.05 -1.69,-4.91 -0.52,-6.69c1.36,-2.1 3.58,-0.05 5.35,0.83z"/>
  <path id="svg_126" opacity="0.5" fill="#6c63ff" d="m908.1771,129.42102c4,-5.44 12.28,0.46 8.54,6.09c-1,1.47 -2,2.9 -3.06,4.26c-12.32,16.63 -18.7,36.82 -24.2,56.77c-1.34,4.9 -2.65,10.13 -1.11,15c-2.2,-13 -0.77,-26.35 2.55,-39.08s8.49,-24.89 13.83,-36.9a33.65,33.65 0 0 1 3.45,-6.14z"/>
  <path id="svg_127" fill="#6c63ff" d="m988.0871,164.39102c8.31,-0.25 9.36,12.35 1.09,13c-2.17,0.17 -4.36,0.22 -6.44,0.28c-25.44,0.69 -49.5,9.92 -72.61,19.84c-5.68,2.43 -11.63,5.16 -15,10.37c10.42,-12.08 24.14,-20.93 38.74,-27.44s30.13,-10.77 45.68,-14.76a39.56,39.56 0 0 1 8.54,-1.29z"/>
  <path id="svg_128" opacity="0.5" fill="#6c63ff" d="m985.7971,195.36102c5.24,0.2 4.06,7.65 -1.22,7.7c-1.38,0 -2.76,-0.05 -4.08,-0.11c-16.05,-0.65 -32.48,3.78 -48.42,8.65c-3.91,1.19 -8,2.55 -10.89,5.48c8.3,-6.67 18.19,-11.31 28.3,-14.53s20.47,-5.08 30.8,-6.77a28.19,28.19 0 0 1 5.51,-0.42z"/>
  <path id="svg_129" opacity="0.2" fill="#6c63ff" d="m976.2371,122.43102c3.16,-0.55 3.4,4.05 0.25,4.75c-0.83,0.18 -1.66,0.32 -2.45,0.46c-9.67,1.65 -18.92,6.38 -27.82,11.31c-2.19,1.21 -4.48,2.55 -5.81,4.66a53.15,53.15 0 0 1 15.06,-12.27a130.67,130.67 0 0 1 17.53,-8a16.51,16.51 0 0 1 3.24,-0.91z"/>
  <path id="svg_130" opacity="0.2" fill="#6c63ff" d="m894.0171,343.52102c-0.71,3.12 -5.05,1.57 -4.48,-1.61c0.15,-0.83 0.34,-1.65 0.52,-2.43c2.21,-9.56 1.41,-19.92 0.29,-30c-0.28,-2.49 -0.62,-5.12 -2.06,-7.16a53.28,53.28 0 0 1 5.51,18.6a131.75,131.75 0 0 1 0.58,19.24a17.29,17.29 0 0 1 -0.36,3.36z"/>
  <path id="svg_131" opacity="0.5" fill="#6c63ff" d="m974.2071,322.73102c2.47,4.18 -3.59,3.9 -6.25,-0.29c-0.7,-1.09 -1.34,-2.19 -1.95,-3.24c-7.52,-12.78 -19,-25.42 -30.46,-37.63c-2.82,-3 -5.88,-6.15 -9.44,-8.15a148.44,148.44 0 0 1 24.75,21.17c7.39,7.73 13.92,15.78 20.31,23.82a39.06,39.06 0 0 1 3.04,4.32z"/>
  <path id="svg_132" opacity="0.2" fill="#6c63ff" d="m754.7971,322.73102c-2.47,4.18 3.59,3.9 6.26,-0.29c0.69,-1.09 1.33,-2.19 1.95,-3.24c7.51,-12.78 18.94,-25.42 30.46,-37.63c2.82,-3 5.88,-6.15 9.44,-8.15a148.44,148.44 0 0 0 -24.78,21.17c-7.39,7.73 -13.92,15.78 -20.31,23.82a39.17,39.17 0 0 0 -3.02,4.32z"/>
  <path id="svg_133" opacity="0.2" fill="#6c63ff" d="m835.0171,343.52102c0.71,3.12 5,1.57 4.48,-1.61c-0.15,-0.83 -0.34,-1.65 -0.52,-2.43c-2.21,-9.56 -1.41,-19.92 -0.29,-30c0.28,-2.49 0.62,-5.12 2.06,-7.16a53.28,53.28 0 0 0 -5.52,18.63a131.75,131.75 0 0 0 -0.58,19.24a17.29,17.29 0 0 0 0.37,3.33z"/>
  <path id="svg_134" opacity="0.2" fill="#6c63ff" d="m950.9571,153.82102c3.15,-0.55 3.39,4.06 0.24,4.75c-0.82,0.19 -1.65,0.32 -2.44,0.46c-9.67,1.65 -18.92,6.38 -27.83,11.31c-2.18,1.22 -4.48,2.55 -5.8,4.66a53.42,53.42 0 0 1 15,-12.27a133.35,133.35 0 0 1 17.54,-8a18,18 0 0 1 3.29,-0.91z"/>
  <path id="svg_135" opacity="0.2" fill="#6c63ff" d="m921.4571,92.19102c2.73,-1.69 4.67,2.49 2,4.31c-0.7,0.48 -1.42,0.92 -2.1,1.34c-8.35,5.14 -15.16,13 -21.58,20.89c-1.57,1.94 -3.2,4 -3.64,6.49a53.17,53.17 0 0 1 9.37,-17a132.73,132.73 0 0 1 13.29,-13.94a17.78,17.78 0 0 1 2.66,-2.09z"/>
  <path id="svg_136" fill="#6c63ff" d="m1024.9971,244.35102c8,4.13 1.24,15.45 -7,11.69c-2.16,-1 -4.26,-2.08 -6.27,-3.13c-24.48,-12.7 -52.93,-17.37 -80.91,-21c-6.86,-0.88 -14.18,-1.65 -20.53,1.07c17.31,-4.89 35.74,-5.29 53.56,-3.22s35.15,6.54 52.31,11.25a46.88,46.88 0 0 1 8.84,3.34z"/>
  <path id="svg_137" opacity="0.5" fill="#6c63ff" d="m1002.1071,288.42102c5.76,5.37 -3.23,11.72 -9.27,6.56c-1.59,-1.35 -3.09,-2.78 -4.53,-4.13c-17.55,-16.47 -40.74,-28.2 -63.83,-39c-5.67,-2.65 -29,-5.36 -35.23,-5.21c16.27,1.45 49.5,6.53 64.27,13.25s28.45,15.05 41.91,23.52a44.45,44.45 0 0 1 6.68,5.01z"/>
  <path id="svg_138" fill="#6c63ff" d="m934.2571,367.59102c0.71,7.84 -10.23,6.57 -11.29,-1.3c-0.27,-2.06 -0.44,-4.12 -0.61,-6.09c-2.09,-24 -11.55,-48.19 -21.55,-71.64c-2.45,-5.75 -18,-23.33 -22.77,-27.38c11.15,11.94 32.52,37.89 39,52.74s11.16,30.19 15.55,45.48a45.33,45.33 0 0 1 1.67,8.19z"/>
  <path id="svg_139" fill="#6c63ff" d="m940.7971,102.32102a1.49,1.49 0 0 1 -0.68,0.2c-0.43,0 -0.74,-0.44 -0.92,-0.84c-1,-2.12 -0.42,-4.88 -1.92,-6.68a23,23 0 0 0 -3.66,6.14l-5.76,-1.78a8.54,8.54 0 0 0 1.09,6.59a8.9,8.9 0 0 0 -2.71,1.84a3,3 0 0 0 -0.71,3.05a14.66,14.66 0 0 0 4.07,0.4a26.62,26.62 0 0 0 0.43,7.56a1.41,1.41 0 0 0 0.49,1a1.38,1.38 0 0 0 1.41,-0.24a13.34,13.34 0 0 0 4.73,-5l2.14,5.03a2.21,2.21 0 0 0 1,1.28a1.52,1.52 0 0 0 1.79,-0.61a4.53,4.53 0 0 0 0.63,-1.94l0.8,-4.87a1.28,1.28 0 0 1 0.27,-0.69a1.25,1.25 0 0 1 0.85,-0.24q3,-0.09 6.09,-0.06c0.35,-1.08 -0.73,-2.09 -1.76,-2.54s-2.28,-0.8 -2.8,-1.81c-1.06,-2.05 1.68,-4.91 0.52,-6.69c-1.39,-2.03 -3.6,0.02 -5.39,0.9z"/>
  <path id="svg_140" opacity="0.2" fill="#6c63ff" d="m958.1771,339.32102a1.28,1.28 0 0 1 -0.68,0.2c-0.43,0 -0.74,-0.43 -0.92,-0.83c-1,-2.13 -0.42,-4.89 -1.92,-6.68a22.81,22.81 0 0 0 -3.66,6.13l-5.76,-1.78a8.57,8.57 0 0 0 1.09,6.6a8.73,8.73 0 0 0 -2.71,1.84a3,3 0 0 0 -0.71,3a14.67,14.67 0 0 0 4.07,0.41a26.64,26.64 0 0 0 0.43,7.56a1.07,1.07 0 0 0 1.9,0.73a13.34,13.34 0 0 0 4.73,-5l2.14,5.11a2.24,2.24 0 0 0 1,1.28a1.53,1.53 0 0 0 1.79,-0.62a4.49,4.49 0 0 0 0.63,-1.94l0.8,-4.87a1.24,1.24 0 0 1 0.27,-0.68a1.21,1.21 0 0 1 0.85,-0.25q3,-0.07 6.09,-0.06c0.35,-1.08 -0.73,-2.08 -1.76,-2.54s-2.28,-0.79 -2.8,-1.8c-1.06,-2.06 1.68,-4.92 0.52,-6.69c-1.4,-2.05 -3.62,0 -5.39,0.88z"/>
  <path id="svg_141" fill="#6c63ff" d="m1006.9471,180.46102a1.53,1.53 0 0 1 -0.68,0.2c-0.44,0 -0.74,-0.44 -0.92,-0.84c-1,-2.13 -0.42,-4.89 -1.93,-6.68a23,23 0 0 0 -3.66,6.14l-5.75,-1.79a8.56,8.56 0 0 0 1.09,6.6a8.78,8.78 0 0 0 -2.71,1.84a3,3 0 0 0 -0.71,3.05a14.66,14.66 0 0 0 4.07,0.4a26.64,26.64 0 0 0 0.43,7.56a1.36,1.36 0 0 0 0.49,1c0.42,0.27 1,0 1.41,-0.23a13.34,13.34 0 0 0 4.73,-5l2.14,5.11a2.27,2.27 0 0 0 0.95,1.28a1.54,1.54 0 0 0 1.8,-0.62a4.45,4.45 0 0 0 0.63,-1.94l0.8,-4.86a1.2,1.2 0 0 1 0.27,-0.69a1.24,1.24 0 0 1 0.85,-0.25q3,-0.07 6.09,-0.06c0.35,-1.08 -0.73,-2.08 -1.77,-2.53s-2.27,-0.8 -2.79,-1.81c-1.06,-2.06 1.68,-4.92 0.52,-6.69c-1.36,-2.13 -3.58,-0.06 -5.35,0.81z"/>
  <path id="svg_142" fill="#6c63ff" d="m811.9671,363.09102a1.9,1.9 0 0 1 -0.94,0.28c-0.61,0 -1,-0.61 -1.29,-1.16c-1.36,-3 -0.58,-6.81 -2.68,-9.31a32.09,32.09 0 0 0 -5.1,8.55l-8,-2.48a11.87,11.87 0 0 0 1.52,9.18a12.23,12.23 0 0 0 -3.78,2.57a4.17,4.17 0 0 0 -1,4.25a20.36,20.36 0 0 0 5.66,0.56a37.64,37.64 0 0 0 0.6,10.54a2,2 0 0 0 0.69,1.34c0.59,0.37 1.36,0 2,-0.33a18.69,18.69 0 0 0 6.6,-7l3,7.12a3.11,3.11 0 0 0 1.33,1.78a2.15,2.15 0 0 0 2.5,-0.86a6.2,6.2 0 0 0 0.88,-2.7l1.12,-6.78a1.6,1.6 0 0 1 0.37,-1a1.67,1.67 0 0 1 1.18,-0.34q4.25,-0.12 8.49,-0.09c0.49,-1.5 -1,-2.9 -2.46,-3.53s-3.17,-1.12 -3.89,-2.52c-1.48,-2.87 2.34,-6.85 0.72,-9.32c-1.96,-2.83 -5.05,0.03 -7.52,1.25z"/>
  <path id="svg_143" fill="#6c63ff" d="m730.8471,185.20102a1.94,1.94 0 0 1 -0.95,0.28c-0.6,0 -1,-0.61 -1.28,-1.17c-1.37,-3 -0.58,-6.81 -2.68,-9.31a32.09,32.09 0 0 0 -5.14,8.59l-8,-2.48a11.93,11.93 0 0 0 1.51,9.19a12.3,12.3 0 0 0 -3.77,2.57a4.18,4.18 0 0 0 -1,4.24a20.82,20.82 0 0 0 5.67,0.57a37.22,37.22 0 0 0 0.6,10.53a1.93,1.93 0 0 0 0.69,1.34c0.59,0.38 1.36,0 1.95,-0.32a18.57,18.57 0 0 0 6.6,-7l3,7.12a3.19,3.19 0 0 0 1.32,1.79a2.15,2.15 0 0 0 2.5,-0.87a6.26,6.26 0 0 0 0.89,-2.7l1.11,-6.78a1.8,1.8 0 0 1 0.37,-1a1.7,1.7 0 0 1 1.19,-0.34q4.25,-0.12 8.49,-0.08c0.48,-1.51 -1,-2.91 -2.47,-3.54s-3.16,-1.11 -3.89,-2.52c-1.47,-2.86 2.35,-6.85 0.72,-9.32c-1.87,-2.88 -4.96,-0.02 -7.43,1.21z"/>
  <path id="svg_144" opacity="0.2" fill="#6c63ff" d="m977.0071,295.36102a1,1 0 0 1 -0.51,0.15c-0.32,0 -0.54,-0.32 -0.68,-0.62c-0.72,-1.57 -0.31,-3.61 -1.42,-4.94a17.14,17.14 0 0 0 -2.71,4.54l-4.26,-1.32a6.34,6.34 0 0 0 0.8,4.88a6.59,6.59 0 0 0 -2,1.37a2.2,2.2 0 0 0 -0.52,2.25a10.81,10.81 0 0 0 3,0.3a20.23,20.23 0 0 0 0.32,5.6a1.07,1.07 0 0 0 0.37,0.71c0.31,0.2 0.72,0 1,-0.17a9.84,9.84 0 0 0 3.5,-3.72l1.59,3.78a1.63,1.63 0 0 0 0.7,0.95a1.14,1.14 0 0 0 1.33,-0.46a3.23,3.23 0 0 0 0.47,-1.43l0.59,-3.61a0.89,0.89 0 0 1 0.2,-0.5a0.87,0.87 0 0 1 0.63,-0.18c1.5,-0.05 3,-0.06 4.51,-0.05c0.26,-0.8 -0.54,-1.54 -1.31,-1.88s-1.68,-0.59 -2.07,-1.33c-0.78,-1.53 1.25,-3.64 0.39,-5c-0.97,-1.49 -2.61,0.03 -3.92,0.68z"/>
  <path id="svg_145" opacity="0.2" fill="#6c63ff" d="m866.7971,358.99102a1,1 0 0 1 -0.5,0.15c-0.33,0 -0.55,-0.33 -0.69,-0.62c-0.72,-1.58 -0.3,-3.62 -1.42,-4.95a17.14,17.14 0 0 0 -2.71,4.54l-4.26,-1.32a6.33,6.33 0 0 0 0.81,4.89a6.49,6.49 0 0 0 -2,1.36a2.21,2.21 0 0 0 -0.52,2.25a10.88,10.88 0 0 0 3,0.3a19.86,19.86 0 0 0 0.32,5.6a1,1 0 0 0 0.36,0.71c0.31,0.2 0.72,0 1,-0.17a9.88,9.88 0 0 0 3.51,-3.72l1.58,3.79a1.66,1.66 0 0 0 0.71,0.94a1.12,1.12 0 0 0 1.32,-0.45a3.31,3.31 0 0 0 0.47,-1.44l0.6,-3.6a0.91,0.91 0 0 1 0.19,-0.51a0.87,0.87 0 0 1 0.63,-0.18c1.5,0 3,-0.06 4.51,-0.05c0.26,-0.8 -0.54,-1.54 -1.31,-1.88s-1.68,-0.59 -2.06,-1.33c-0.79,-1.53 1.24,-3.64 0.38,-4.95c-0.92,-1.53 -2.6,-0.02 -3.92,0.64z"/>
  <path id="svg_146" opacity="0.5" fill="#6c63ff" d="m760.1571,136.30102a1,1 0 0 1 -0.5,0.15c-0.32,0 -0.55,-0.33 -0.68,-0.62c-0.73,-1.57 -0.31,-3.62 -1.43,-4.95a17.19,17.19 0 0 0 -2.71,4.55l-4.26,-1.32a6.31,6.31 0 0 0 0.81,4.88a6.49,6.49 0 0 0 -2,1.36a2.25,2.25 0 0 0 -0.52,2.26a10.88,10.88 0 0 0 3,0.3a19.76,19.76 0 0 0 0.32,5.59a1,1 0 0 0 0.36,0.72a1,1 0 0 0 1,-0.18a9.92,9.92 0 0 0 3.51,-3.71l1.58,3.78a1.68,1.68 0 0 0 0.71,1a1.15,1.15 0 0 0 1.33,-0.46a3.5,3.5 0 0 0 0.47,-1.44l0.65,-3.62a0.92,0.92 0 0 1 0.2,-0.51a0.94,0.94 0 0 1 0.63,-0.18c1.5,0 3,0 4.5,0c0.26,-0.8 -0.54,-1.54 -1.3,-1.88s-1.69,-0.59 -2.07,-1.34c-0.79,-1.52 1.24,-3.64 0.38,-4.95c-1.03,-1.6 -2.66,-0.08 -3.98,0.57z"/>
  <path id="svg_147" opacity="0.5" fill="#6c63ff" d="m816.9171,261.79102a1,1 0 0 1 -0.5,0.15c-0.32,0 -0.55,-0.33 -0.68,-0.62c-0.73,-1.58 -0.31,-3.62 -1.43,-5a16.74,16.74 0 0 0 -2.7,4.55l-4.27,-1.28a6.35,6.35 0 0 0 0.81,4.88a6.61,6.61 0 0 0 -2,1.36a2.25,2.25 0 0 0 -0.52,2.26a10.88,10.88 0 0 0 3,0.3a19.79,19.79 0 0 0 0.32,5.59a0.79,0.79 0 0 0 1.4,0.54a9.92,9.92 0 0 0 3.51,-3.71l1.58,3.78a1.76,1.76 0 0 0 0.71,0.95a1.15,1.15 0 0 0 1.33,-0.46a3.23,3.23 0 0 0 0.47,-1.44l0.59,-3.6a0.92,0.92 0 0 1 0.2,-0.51a0.91,0.91 0 0 1 0.63,-0.18c1.5,0 3,-0.06 4.51,0c0.25,-0.8 -0.54,-1.54 -1.31,-1.88s-1.68,-0.59 -2.07,-1.34c-0.78,-1.52 1.24,-3.64 0.38,-4.95c-1,-1.59 -2.64,-0.04 -3.96,0.61z"/>
  <path id="svg_148" opacity="0.5" fill="#6c63ff" d="m775.7271,212.87102a1,1 0 0 1 -0.5,0.15c-0.33,0 -0.55,-0.33 -0.69,-0.62c-0.72,-1.58 -0.3,-3.62 -1.42,-4.95a17,17 0 0 0 -2.71,4.55l-4.26,-1.32a6.35,6.35 0 0 0 0.8,4.88a6.56,6.56 0 0 0 -2,1.36a2.22,2.22 0 0 0 -0.52,2.26a10.88,10.88 0 0 0 3,0.3a19.79,19.79 0 0 0 0.32,5.59a0.78,0.78 0 0 0 1.4,0.54a9.82,9.82 0 0 0 3.5,-3.71l1.59,3.78a1.72,1.72 0 0 0 0.71,1a1.14,1.14 0 0 0 1.32,-0.46a3.23,3.23 0 0 0 0.47,-1.44l0.6,-3.6a0.91,0.91 0 0 1 0.19,-0.51a0.92,0.92 0 0 1 0.63,-0.18c1.5,0 3,-0.06 4.51,0c0.26,-0.8 -0.54,-1.54 -1.31,-1.88s-1.68,-0.59 -2.06,-1.34c-0.79,-1.52 1.24,-3.64 0.38,-4.95c-1,-1.62 -2.64,-0.1 -3.95,0.55z"/>
  <path id="svg_149" opacity="0.5" fill="#6c63ff" d="m952.6571,224.39102a1,1 0 0 1 -0.5,0.15c-0.32,0 -0.54,-0.33 -0.68,-0.62c-0.73,-1.58 -0.31,-3.62 -1.42,-4.95a16.78,16.78 0 0 0 -2.71,4.55l-4.26,-1.32a6.35,6.35 0 0 0 0.8,4.88a6.61,6.61 0 0 0 -2,1.36a2.26,2.26 0 0 0 -0.52,2.26a11.32,11.32 0 0 0 3,0.3a19.81,19.81 0 0 0 0.32,5.59a0.79,0.79 0 0 0 1.41,0.54a9.89,9.89 0 0 0 3.5,-3.71l1.59,3.78a1.7,1.7 0 0 0 0.7,0.95a1.15,1.15 0 0 0 1.33,-0.46a3.27,3.27 0 0 0 0.47,-1.44l0.59,-3.6a0.92,0.92 0 0 1 0.2,-0.51a0.91,0.91 0 0 1 0.63,-0.18c1.5,0 3,-0.06 4.51,-0.05c0.25,-0.79 -0.54,-1.54 -1.31,-1.87s-1.68,-0.59 -2.07,-1.34c-0.78,-1.52 1.25,-3.64 0.38,-4.95c-1,-1.53 -2.64,-0.01 -3.96,0.64z"/>
  <path id="svg_150" opacity="0.2" fill="#6c63ff" d="m866.7971,214.76102a1,1 0 0 1 -0.5,0.15c-0.33,0 -0.55,-0.32 -0.69,-0.62c-0.72,-1.57 -0.3,-3.61 -1.42,-4.94a17.14,17.14 0 0 0 -2.71,4.54l-4.25,-1.3a6.3,6.3 0 0 0 0.81,4.88a6.52,6.52 0 0 0 -2,1.37a2.2,2.2 0 0 0 -0.52,2.25a10.88,10.88 0 0 0 3,0.3a19.86,19.86 0 0 0 0.32,5.6a1,1 0 0 0 0.36,0.71c0.31,0.2 0.72,0 1,-0.17a10,10 0 0 0 3.6,-3.74l1.58,3.78a1.68,1.68 0 0 0 0.71,0.95a1.13,1.13 0 0 0 1.32,-0.46a3.23,3.23 0 0 0 0.39,-1.47l0.6,-3.61a0.88,0.88 0 0 1 0.19,-0.5a0.93,0.93 0 0 1 0.63,-0.19c1.5,0 3,-0.05 4.51,0c0.26,-0.8 -0.54,-1.54 -1.31,-1.88s-1.68,-0.59 -2.06,-1.33c-0.79,-1.53 1.24,-3.64 0.38,-5c-0.94,-1.49 -2.62,0.03 -3.94,0.68z"/>
  <path id="svg_151" opacity="0.3" fill="#6c63ff" d="m839.8671,226.48102a1,1 0 0 1 -0.51,0.15c-0.32,0 -0.54,-0.32 -0.68,-0.62c-0.72,-1.57 -0.31,-3.61 -1.42,-4.94a17.14,17.14 0 0 0 -2.71,4.54l-4.26,-1.32a6.34,6.34 0 0 0 0.8,4.88a6.59,6.59 0 0 0 -2,1.37a2.23,2.23 0 0 0 -0.53,2.25a10.92,10.92 0 0 0 3,0.3a20.23,20.23 0 0 0 0.32,5.6a1.07,1.07 0 0 0 0.37,0.71c0.31,0.2 0.72,0 1,-0.17a9.84,9.84 0 0 0 3.5,-3.72l1.59,3.78a1.63,1.63 0 0 0 0.7,0.95a1.13,1.13 0 0 0 1.33,-0.46a3.23,3.23 0 0 0 0.47,-1.43l0.59,-3.6a0.89,0.89 0 0 1 0.2,-0.51a0.87,0.87 0 0 1 0.63,-0.18c1.5,-0.05 3,-0.06 4.51,-0.05c0.26,-0.8 -0.54,-1.54 -1.31,-1.88s-1.68,-0.59 -2.07,-1.33c-0.78,-1.53 1.25,-3.64 0.39,-5c-0.98,-1.49 -2.6,0.03 -3.91,0.68z"/>
  <path id="svg_152" opacity="0.2" fill="#6c63ff" d="m814.7971,155.59102a1,1 0 0 1 -0.5,0.15c-0.32,0 -0.54,-0.32 -0.68,-0.62c-0.73,-1.57 -0.31,-3.62 -1.42,-4.94a16.87,16.87 0 0 0 -2.71,4.54l-4.26,-1.32a6.35,6.35 0 0 0 0.8,4.88a6.44,6.44 0 0 0 -2,1.36a2.25,2.25 0 0 0 -0.53,2.26a10.92,10.92 0 0 0 3,0.3a19.76,19.76 0 0 0 0.32,5.59a1.1,1.1 0 0 0 0.37,0.72c0.31,0.2 0.72,0 1,-0.18a9.82,9.82 0 0 0 3.5,-3.71l1.59,3.78a1.67,1.67 0 0 0 0.7,1a1.14,1.14 0 0 0 1.33,-0.46a3.23,3.23 0 0 0 0.47,-1.43l0.59,-3.61a0.92,0.92 0 0 1 0.2,-0.51a1,1 0 0 1 0.63,-0.18c1.5,0 3,0 4.51,0c0.25,-0.8 -0.54,-1.54 -1.31,-1.88s-1.68,-0.59 -2.07,-1.34c-0.78,-1.52 1.25,-3.64 0.38,-4.95c-1,-1.66 -2.64,-0.14 -3.91,0.55z"/>
  <path id="svg_153" opacity="0.3" fill="#6c63ff" d="m864.2171,248.11102a1,1 0 0 1 -0.5,0.15a0.9,0.9 0 0 1 -0.68,-0.62c-0.73,-1.57 -0.31,-3.62 -1.43,-4.94a17.14,17.14 0 0 0 -2.71,4.54l-4.26,-1.32a6.35,6.35 0 0 0 0.81,4.88a6.67,6.67 0 0 0 -2,1.36a2.25,2.25 0 0 0 -0.52,2.26a10.88,10.88 0 0 0 3,0.3a19.76,19.76 0 0 0 0.32,5.59a1,1 0 0 0 0.36,0.72a1,1 0 0 0 1,-0.17a10,10 0 0 0 3.51,-3.72l1.58,3.78a1.68,1.68 0 0 0 0.71,0.95a1.14,1.14 0 0 0 1.33,-0.46a3.5,3.5 0 0 0 0.47,-1.43l0.59,-3.61a0.68,0.68 0 0 1 0.83,-0.69c1.5,0 3,0 4.5,0c0.26,-0.8 -0.54,-1.54 -1.3,-1.88s-1.69,-0.59 -2.07,-1.34c-0.78,-1.52 1.24,-3.64 0.38,-4.95c-0.97,-1.57 -2.6,-0.05 -3.92,0.6z"/>
 </g>
</svg>