<svg width="250.81881" height="436.93595" xmlns="http://www.w3.org/2000/svg" data-name="Layer 1">

 <g>
  <title>Layer 1</title>
  <polygon id="svg_27" fill="#ffb6b6" points="89.23599243164062,399.69097900390625 75.95399475097656,407.5570068359375 39.28999328613281,360.07000732421875 58.89399719238281,348.4590148925781 89.23599243164062,399.69097900390625 "/>
  <path id="svg_28" fill="#2f2e41" d="m100.24931,410.55919l-42.82736,25.3656l-0.32085,-0.54169a19.375,19.375 0 0 1 6.79577,-26.54258l0.00106,-0.00063l26.15755,-15.49235l10.19383,17.21165z"/>
  <polygon id="svg_29" fill="#ffb6b6" points="153.37799072265625,399.69097900390625 166.66000366210938,407.5570068359375 203.32400512695312,360.07000732421875 183.72100830078125,348.4590148925781 153.37799072265625,399.69097900390625 "/>
  <path id="svg_30" fill="#2f2e41" d="m152.55867,393.34754l26.15754,15.49235l0.00106,0.00063a19.375,19.375 0 0 1 6.79578,26.54258l-0.32085,0.54169l-42.82736,-25.3656l10.19383,-17.21165z"/>
  <path id="svg_31" fill="#2f2e41" d="m162.50596,218.49997s-43.33516,30.52256 -85.517,2.97925l-0.65992,19.20056s-90.35428,38.32019 -75.52197,68.25619s46,61 46,61l17,-14l-19,-48l51.68187,-21.89452l45.05555,0.22679l62.82634,25.42864l-30,45l26.43624,8.23909s63,-58 49.5,-74.5c-10.82077,-13.22539 -75.59448,-42.878 -75.59448,-42.878l-12.20663,-29.058z"/>
  <path id="svg_32" fill="#6c63ff" d="m177.58686,106.5275l-37.50855,-12.43378l-9.27124,-13.15775l-27,0l-7.99951,13.366l-34.78027,12.22553a7.99991,7.99991 0 0 0 -5.686,9.04718l15.46578,127.36129l25,-2s33.68189,26.28192 54,-4l1.085,-15.27057l20.915,20.27057l11.46582,-126.36129a7.9999,7.9999 0 0 0 -5.68603,-9.04718z"/>
  <path id="svg_33" fill="#2f2e41" d="m148.78939,20.15958c-11.08984,-18.7384 -33.03021,-19.61169 -33.03021,-19.61169s-21.37964,-2.734 -35.09454,25.80481c-12.78339,26.60052 -30.42609,43.28387 -2.84033,49.51086l4.98278,-15.50867l3.08582,16.66327a107.9348,107.9348 0 0 0 11.80292,0.20172c29.54211,-0.95379 57.67651,0.27906 56.77063,-10.3219c-1.20425,-14.09246 4.99357,-28.70831 -5.67707,-46.7384z"/>
  <circle id="svg_34" fill="#ffb8b8" r="29" cy="46.8549" cx="118.30709"/>
  <polygon id="svg_35" fill="#2f2e41" points="144.885986328125,17.352996826171875 123.20999145507812,5.999000549316406 93.27700805664062,10.643997192382812 87.08401489257812,37.99699401855469 102.5,37.40400695800781 106.8070068359375,27.354995727539062 106.8070068359375,37.23899841308594 113.92098999023438,36.964996337890625 118.04901123046875,20.96600341796875 120.6300048828125,37.99699401855469 145.91900634765625,37.48100280761719 144.885986328125,17.352996826171875 "/>
  <path id="svg_36" opacity="0.2" d="m72.98894,133.99997l22.5,87.991s-10.5,-76.991 -22.5,-87.991z"/>
  <path id="svg_37" opacity="0.2" d="m140.12521,222.99097l22.5,-87.991c-12,11 -22.5,87.991 -22.5,87.991z"/>
  <path id="svg_38" fill="#ffb6b6" d="m145.3649,299.86097a9.377,9.377 0 0 0 3.01578,-14.05864l20.42639,-55.86636l-15.63548,-7.9598l-18.53953,62.542a9.42779,9.42779 0 0 0 10.73284,15.3428z"/>
  <path id="svg_39" fill="#6c63ff" d="m165.10173,128.50287l-22.78959,99.10187a4,4 0 0 0 2.99509,4.73322l21.94756,3.16215a4,4 0 0 0 4.87482,-3.32253l6.67746,-103.24161l-13.70534,-0.4331z"/>
  <path id="svg_40" fill="#ffb6b6" d="m93.24924,301.86097a9.377,9.377 0 0 1 -3.01577,-14.05864l-20.4264,-55.86636l15.63548,-7.95977l18.53954,62.542a9.42779,9.42779 0 0 1 -10.73285,15.34277z"/>
  <path id="svg_41" fill="#6c63ff" d="m73.51239,130.50287l22.7896,99.10187a4,4 0 0 1 -2.99509,4.73322l-21.94751,3.16215a4,4 0 0 1 -4.87483,-3.32253l-8.67749,-103.24161l15.70532,-0.4331z"/>
  <path id="svg_42" fill="#e4e4e4" d="m583.99999,646.93597l-583,0a1,1 0 0 1 0,-2l583,0a1,1 0 0 1 0,2z"/>
  <path id="svg_44" fill="#e4e4e4" d="m503.5641,600.38939l0.74777,-1.0657c13.38038,9.39421 14.19428,43.38225 14.2223,44.82438l-1.30224,0.02544c-0.00636,-0.34654 -0.82726,-34.76888 -13.66783,-43.78412z"/>
  <circle id="svg_46" fill="#e4e4e4" r="6.51122" cy="592.38264" cx="497.42678"/>
  <path id="svg_49" fill="#e4e4e4" d="m490.20839,609.30977a18.47474,18.47474 0 0 1 18.99452,6.51531a18.47481,18.47481 0 0 1 -18.99452,-6.51531z"/>
 </g>
</svg>